{"title":"The Paranormal Diaries Clophill 2013 WEBrip x264 Ac3-MiLLENiUM","uid":9168274,"size":1280319109,"categoryP":"video","categoryS":"movies","magnet":"?xt=urn:btih:4d1ee5b7cbd8b459a051ffe41cdb25879f9778c9&amp;dn=The+Paranormal+Diaries+Clophill+2013+WEBrip+x264+Ac3-MiLLENiUM&amp;tr=udp%3A%2F%2Ftracker.openbittorrent.com%3A80&amp;tr=udp%3A%2F%2Fopen.demonii.com%3A1337&amp;tr=udp%3A%2F%2Ftracker.coppersurfer.tk%3A6969&amp;tr=udp%3A%2F%2Fexodus.desync.com%3A6969","seeders":3,"leechers":3,"uploader":".BONE.","files":4,"time":1384025417,"description":" &lt;a href=&quot;http://www.imdb.com/title/tt1852137/&quot; rel=&quot;nofollow&quot; target=&quot;_NEW&quot;&gt;http://www.imdb.com/title/tt1852137/&lt;/a&gt;\n\nComplete name : The Paranormal Diaries Clophill 2013 WEBrip x264 Ac3-MiLLENiUM.mkv\nSource : WEB [thanks]\nFormat : Matroska\nFormat version : Version 4 / Version 2\nFile size : 1.17 GiB\nDuration : 1h 28mn\nOverall bit rate mode : Variable\nOverall bit rate : 1 896 Kbps\nEncoded date : UTC 2013-10-22 17:26:55\nWriting application : mkvmerge v6.5.0 ('Isn't she lovely') built on Oct 20 2013 12:50:05\nWriting library : libebml v1.3.0 + libmatroska v1.4.1\n\nVideo\nID : 2\nFormat : AVC\nFormat/Info : Advanced Video Codec\nFormat profile : &lt;a class=&quot;__cf_email__&quot; href=&quot;/cdn-cgi/l/email-protection&quot; data-cfemail=&quot;c880a1afa08884fce6f9&quot;&gt;[email&amp;#160;protected]&lt;/a&gt;&lt;script cf-hash='f9e31' type=&quot;text/javascript&quot;&gt;\n/* &lt;![CDATA[ */!function(){try{var t=&quot;currentScript&quot;in document?document.currentScript:function(){for(var t=document.getElementsByTagName(&quot;script&quot;),e=t.length;e--;)if(t[e].getAttribute(&quot;cf-hash&quot;))return t[e]}();if(t&amp;&amp;t.previousSibling){var e,r,n,i,c=t.previousSibling,a=c.getAttribute(&quot;data-cfemail&quot;);if(a){for(e=&quot;&quot;,r=parseInt(a.substr(0,2),16),n=2;a.length-n;n+=2)i=parseInt(a.substr(n,2),16)^r,e+=String.fromCharCode(i);e=document.createTextNode(e),c.parentNode.replaceChild(e,c)}}}catch(u){}}();/* ]]&gt; */&lt;/script&gt;\nFormat settings, CABAC : Yes\nFormat settings, ReFrames : 3 frames\nCodec ID : V_MPEG4/ISO/AVC\nDuration : 1h 28mn\nBit rate mode : Variable\nBit rate : 1 510 Kbps\nMaximum bit rate : 40.0 Mbps\nWidth : 720 pixels\nHeight : 304 pixels\nDisplay aspect ratio : 2.35:1\nFrame rate : 25.000 fps\nColor space : YUV\nChroma subsampling : 4:2:0\nBit depth : 8 bits\nScan type : Progressive\nBits/(Pixel*Frame) : 0.276\nStream size : 932 MiB (78%)\nWriting library : x264 core 138 r2358 9e941d1\nLanguage : English\nDefault : Yes\nForced : No\nColor primaries : BT.709-5, BT.1361, IEC 61966-2-4, SMPTE RP177\nTransfer characteristics : BT.709-5, BT.1361\nMatrix coefficients : BT.709-5, BT.1361, IEC 61966-2-4 709, SMPTE RP177\n\nAudio\nID : 1\nFormat : AC-3\nFormat/Info : Audio Coding 3\nMode extension : CM (complete main)\nCodec ID : A_AC3\nDuration : 1h 28mn\nBit rate mode : Constant\nBit rate : 384 Kbps\nChannel(s) : 2 channels\nChannel positions : Front: L R\nSampling rate : 44.1 KHz\nBit depth : 16 bits\nCompression mode : Lossy\nStream size : 243 MiB (20%)\nDefault : Yes\nForced : No","torrent":{"xt":"urn:btih:4d1ee5b7cbd8b459a051ffe41cdb25879f9778c9","amp;dn":"The+Paranormal+Diaries+Clophill+2013+WEBrip+x264+Ac3-MiLLENiUM","amp;tr":["udp%3A%2F%2Ftracker.openbittorrent.com%3A80","udp%3A%2F%2Fopen.demonii.com%3A1337","udp%3A%2F%2Ftracker.coppersurfer.tk%3A6969","udp%3A%2F%2Fexodus.desync.com%3A6969"],"infoHash":"4d1ee5b7cbd8b459a051ffe41cdb25879f9778c9","infoHashBuffer":{"type":"Buffer","data":[77,30,229,183,203,216,180,89,160,81,255,228,28,219,37,135,159,151,120,201]},"announce":[],"urlList":[]}}